<svg width="25" height="24" viewBox="0 0 25 24" fill="none" xmlns="http://www.w3.org/2000/svg">
<g id="bell-02">
<path id="Icon" d="M14.5 21H10.5M18.5 8C18.5 6.4087 17.8679 4.88258 16.7426 3.75736C15.6174 2.63214 14.0913 2 12.5 2C10.9087 2 9.38258 2.63214 8.25736 3.75736C7.13214 4.88258 6.5 6.4087 6.5 8C6.5 11.0902 5.72047 13.206 4.84967 14.6054C4.11513 15.7859 3.74786 16.3761 3.76133 16.5408C3.77624 16.7231 3.81486 16.7926 3.96178 16.9016C4.09446 17 4.69259 17 5.88886 17H19.1111C20.3074 17 20.9055 17 21.0382 16.9016C21.1851 16.7926 21.2238 16.7231 21.2387 16.5408C21.2521 16.3761 20.8849 15.7859 20.1503 14.6054C19.2795 13.206 18.5 11.0902 18.5 8Z" stroke="#101828" stroke-width="2" stroke-linecap="round" stroke-linejoin="round"/>
<circle id="Ellipse 2" cx="18.5839" cy="4" r="4" fill="#F04438"/>
</g>
</svg>
