<svg width="25" height="24" viewBox="0 0 25 24" fill="none" xmlns="http://www.w3.org/2000/svg">
<g id="message-square-01">
<path id="Icon" d="M3.5 7.8C3.5 6.11984 3.5 5.27976 3.82698 4.63803C4.1146 4.07354 4.57354 3.6146 5.13803 3.32698C5.77976 3 6.61984 3 8.3 3H16.7C18.3802 3 19.2202 3 19.862 3.32698C20.4265 3.6146 20.8854 4.07354 21.173 4.63803C21.5 5.27976 21.5 6.11984 21.5 7.8V13.2C21.5 14.8802 21.5 15.7202 21.173 16.362C20.8854 16.9265 20.4265 17.3854 19.862 17.673C19.2202 18 18.3802 18 16.7 18H10.1837C9.5597 18 9.24767 18 8.94921 18.0613C8.68443 18.1156 8.4282 18.2055 8.18749 18.3285C7.91617 18.4671 7.67252 18.662 7.18521 19.0518L4.79976 20.9602C4.38367 21.2931 4.17563 21.4595 4.00054 21.4597C3.84827 21.4599 3.70422 21.3906 3.60923 21.2716C3.5 21.1348 3.5 20.8684 3.5 20.3355V7.8Z" stroke="#475467" stroke-width="2" stroke-linecap="round" stroke-linejoin="round"/>
</g>
</svg>
